<svg width="117" height="35" viewBox="0 0 117 35" fill="none" xmlns="http://www.w3.org/2000/svg">
<path d="M54.3294 22.8275C54.5087 22.8275 54.6635 22.8968 54.7939 23.0352L56.0894 24.4399C55.3724 25.3275 54.4883 26.0075 53.4372 26.4797C52.3942 26.952 51.1394 27.1882 49.6727 27.1882C48.3609 27.1882 47.1793 26.9643 46.1282 26.5164C45.0852 26.0685 44.193 25.4455 43.4515 24.6475C42.71 23.8495 42.1396 22.8968 41.7404 21.7893C41.3492 20.6818 41.1537 19.4726 41.1537 18.1615C41.1537 16.8342 41.3737 15.6209 41.8138 14.5215C42.2537 13.4141 42.873 12.4614 43.6715 11.6633C44.4701 10.8653 45.4234 10.2464 46.5315 9.80662C47.6478 9.35881 48.8782 9.13483 50.2227 9.13483C51.5346 9.13483 52.6794 9.34654 53.6571 9.77005C54.6431 10.1853 55.4864 10.739 56.1872 11.4312L55.0872 12.9581C55.022 13.0558 54.9364 13.1413 54.8306 13.2146C54.7327 13.2879 54.5942 13.3245 54.415 13.3245C54.2275 13.3245 54.036 13.2512 53.8405 13.1046C53.6449 12.9581 53.3964 12.7993 53.095 12.6283C52.7934 12.4572 52.4105 12.2985 51.946 12.1519C51.4897 12.0053 50.9071 11.932 50.1983 11.932C49.3671 11.932 48.6012 12.0786 47.9004 12.3717C47.2079 12.6567 46.6089 13.068 46.1038 13.6054C45.6067 14.1429 45.2156 14.7984 44.9304 15.572C44.6534 16.3374 44.5149 17.2006 44.5149 18.1615C44.5149 19.155 44.6534 20.0385 44.9304 20.8121C45.2156 21.5857 45.5986 22.2372 46.0793 22.7664C46.5601 23.2957 47.1264 23.7029 47.7782 23.9879C48.4301 24.2648 49.1308 24.4032 49.8805 24.4032C50.3286 24.4032 50.732 24.3788 51.0905 24.3299C51.4571 24.2811 51.7912 24.2037 52.0927 24.0979C52.4023 23.992 52.6916 23.8577 52.9605 23.6948C53.2375 23.5238 53.5105 23.3161 53.7794 23.0718C53.8609 22.9985 53.9464 22.9416 54.036 22.9008C54.1257 22.8519 54.2235 22.8275 54.3294 22.8275Z" fill="#969FA4"/>
<path d="M67.747 26.9927H66.3903C66.1052 26.9927 65.881 26.952 65.7181 26.8706C65.5552 26.781 65.4329 26.606 65.3515 26.3454L65.0825 25.4537C64.7647 25.7387 64.4511 25.9911 64.1414 26.2111C63.8399 26.4228 63.5263 26.6019 63.2003 26.7485C62.8744 26.8951 62.528 27.005 62.1614 27.0783C61.7947 27.1515 61.3873 27.1882 60.9391 27.1882C60.4095 27.1882 59.9207 27.119 59.4725 26.9805C59.0243 26.834 58.6373 26.6182 58.3114 26.3332C57.9936 26.0482 57.745 25.6939 57.5658 25.2705C57.3865 24.8471 57.2969 24.3544 57.2969 23.7925C57.2969 23.3202 57.4191 22.8561 57.6636 22.4001C57.9161 21.9359 58.3317 21.5206 58.9102 21.1541C59.4888 20.7795 60.2588 20.4701 61.2203 20.2258C62.1818 19.9815 63.3755 19.8431 64.8014 19.8105V19.0776C64.8014 18.2389 64.6222 17.62 64.2636 17.2211C63.9133 16.8139 63.4 16.6103 62.7236 16.6103C62.2347 16.6103 61.8273 16.6673 61.5014 16.7813C61.1755 16.8953 60.8903 17.0256 60.6458 17.1721C60.4095 17.3106 60.1895 17.4368 59.9858 17.5508C59.7821 17.6648 59.558 17.7219 59.3136 17.7219C59.1099 17.7219 58.9347 17.6689 58.788 17.563C58.6414 17.4571 58.5232 17.3269 58.4336 17.1721L57.8835 16.2072C59.3258 14.888 61.0654 14.2284 63.1025 14.2284C63.8359 14.2284 64.4877 14.3505 65.0581 14.5948C65.6367 14.831 66.1255 15.1649 66.5248 15.5964C66.9241 16.0199 67.2255 16.5289 67.4292 17.1233C67.6411 17.7178 67.747 18.3692 67.747 19.0776V26.9927ZM61.8803 25.1117C62.1899 25.1117 62.4751 25.0832 62.7359 25.0262C62.9966 24.9692 63.2411 24.8837 63.4692 24.7697C63.7055 24.6557 63.9295 24.5173 64.1414 24.3544C64.3614 24.1834 64.5814 23.9839 64.8014 23.7559V21.6427C63.9214 21.6834 63.184 21.7608 62.5892 21.8748C62.0025 21.9806 61.5299 22.1191 61.1714 22.2901C60.8129 22.4611 60.5562 22.6606 60.4014 22.8886C60.2547 23.1167 60.1814 23.365 60.1814 23.6337C60.1814 24.163 60.3362 24.5417 60.6458 24.7697C60.9636 24.9977 61.3751 25.1117 61.8803 25.1117Z" fill="#969FA4"/>
<path d="M70.2267 26.9927V14.4605H71.9989C72.3085 14.4605 72.5245 14.5175 72.6467 14.6315C72.7689 14.7455 72.8504 14.9409 72.8911 15.2178L73.0745 16.7325C73.5226 15.9588 74.0482 15.3481 74.6512 14.9002C75.2541 14.4524 75.9305 14.2284 76.6801 14.2284C77.2994 14.2284 77.8127 14.3709 78.2201 14.656L77.829 16.9156C77.8046 17.0623 77.7515 17.1681 77.67 17.2332C77.5886 17.2902 77.4786 17.3187 77.3401 17.3187C77.2179 17.3187 77.0509 17.2902 76.8389 17.2332C76.6271 17.1762 76.346 17.1477 75.9956 17.1477C75.3682 17.1477 74.8304 17.3228 74.3823 17.6729C73.9341 18.015 73.5552 18.5199 73.2456 19.1876V26.9927H70.2267Z" fill="#969FA4"/>
<path d="M88.5404 26.9927C88.1496 26.9927 87.8932 26.8095 87.7703 26.4431L87.5264 25.2338C87.2658 25.527 86.9928 25.7916 86.7074 26.0278C86.4219 26.2639 86.1124 26.4675 85.778 26.6385C85.4527 26.8095 85.0984 26.9398 84.7151 27.0294C84.34 27.1271 83.9326 27.176 83.4928 27.176C82.8084 27.176 82.181 27.0334 81.6106 26.7485C81.0403 26.4635 80.5473 26.0522 80.1317 25.5148C79.7243 24.9692 79.4065 24.2973 79.1784 23.4993C78.9583 22.7013 78.8484 21.7893 78.8484 20.7632C78.8484 19.835 78.9747 18.9718 79.2273 18.1738C79.4799 17.3757 79.8425 16.6836 80.315 16.0972C80.7876 15.5109 81.3539 15.0549 82.0139 14.7291C82.674 14.3953 83.4156 14.2284 84.2388 14.2284C84.9391 14.2284 85.5382 14.3424 86.0353 14.5704C86.5323 14.7903 86.9762 15.0875 87.3671 15.4621V8.84167H90.3867V26.9927H88.5404ZM84.5192 24.7819C85.1466 24.7819 85.6809 24.6516 86.1207 24.391C86.5605 24.1304 86.9762 23.7599 87.3671 23.2795V17.6607C87.0252 17.2454 86.6501 16.9523 86.2427 16.7813C85.8436 16.6103 85.4121 16.5248 84.9474 16.5248C84.491 16.5248 84.0753 16.6103 83.7002 16.7813C83.3343 16.9523 83.0206 17.2128 82.7595 17.563C82.5069 17.905 82.3113 18.3448 82.1728 18.8822C82.0344 19.4114 81.9651 20.0385 81.9651 20.7632C81.9651 21.4961 82.0221 22.1191 82.1362 22.6321C82.2584 23.1369 82.4295 23.5522 82.6495 23.878C82.8695 24.1956 83.1385 24.4277 83.4563 24.5742C83.7741 24.7126 84.1284 24.7819 84.5192 24.7819Z" fill="#969FA4"/>
<path d="M98.351 14.265C99.1409 14.265 99.8662 14.3912 100.526 14.6437C101.195 14.8961 101.769 15.2666 102.249 15.7552C102.731 16.2357 103.105 16.8301 103.374 17.5386C103.643 18.2389 103.778 19.0409 103.778 19.9448C103.778 20.1729 103.765 20.3642 103.74 20.5189C103.725 20.6656 103.687 20.7836 103.631 20.8732C103.582 20.9546 103.512 21.0157 103.423 21.0564C103.333 21.089 103.219 21.1052 103.081 21.1052H95.3314C95.421 22.3918 95.7679 23.3365 96.3703 23.9391C96.9735 24.5416 97.7718 24.843 98.7659 24.843C99.2555 24.843 99.6745 24.7859 100.025 24.6719C100.384 24.558 100.693 24.4318 100.954 24.2933C101.223 24.1549 101.455 24.0287 101.651 23.9146C101.854 23.8006 102.05 23.7436 102.238 23.7436C102.36 23.7436 102.466 23.7681 102.556 23.8169C102.645 23.8658 102.722 23.935 102.787 24.0246L103.667 25.1239C103.333 25.5148 102.959 25.8446 102.543 26.1133C102.127 26.3739 101.692 26.5856 101.235 26.7485C100.787 26.9031 100.327 27.0131 99.8537 27.0783C99.3899 27.1434 98.9377 27.176 98.497 27.176C97.6258 27.176 96.8151 27.0334 96.0649 26.7485C95.3156 26.4553 94.6634 26.0278 94.1091 25.4659C93.5556 24.8959 93.1192 24.1956 92.8014 23.365C92.4836 22.5263 92.3251 21.5572 92.3251 20.4579C92.3251 19.6028 92.4636 18.8008 92.7408 18.0516C93.0179 17.2942 93.4129 16.6387 93.9266 16.085C94.4477 15.5232 95.0791 15.0794 95.821 14.7536C96.5703 14.4279 97.4133 14.265 98.351 14.265ZM98.4116 16.427C97.532 16.427 96.8433 16.6754 96.3462 17.1721C95.8492 17.6688 95.5314 18.3732 95.3928 19.2852H101.064C101.064 18.8944 101.011 18.528 100.905 18.186C100.799 17.8358 100.636 17.5304 100.416 17.2699C100.196 17.0092 99.9193 16.8056 99.5849 16.6591C99.2513 16.5044 98.8596 16.427 98.4116 16.427Z" fill="#969FA4"/>
<path d="M114.562 26.9927C114.171 26.9927 113.914 26.8095 113.792 26.4431L113.548 25.2338C113.286 25.527 113.013 25.7916 112.729 26.0278C112.443 26.2639 112.134 26.4675 111.799 26.6385C111.474 26.8095 111.119 26.9398 110.736 27.0294C110.361 27.1271 109.954 27.176 109.514 27.176C108.829 27.176 108.202 27.0334 107.632 26.7485C107.061 26.4635 106.568 26.0522 106.153 25.5148C105.745 24.9692 105.427 24.2973 105.199 23.4993C104.979 22.7013 104.87 21.7893 104.87 20.7632C104.87 19.835 104.996 18.9718 105.248 18.1738C105.501 17.3757 105.864 16.6836 106.336 16.0972C106.809 15.5109 107.375 15.0549 108.035 14.7291C108.695 14.3953 109.437 14.2284 110.259 14.2284C110.96 14.2284 111.559 14.3424 112.057 14.5704C112.554 14.7903 112.998 15.0875 113.388 15.4621V8.84167H116.407V26.9927H114.562ZM110.541 24.7819C111.168 24.7819 111.702 24.6516 112.142 24.391C112.582 24.1304 112.998 23.7599 113.388 23.2795V17.6607C113.046 17.2454 112.671 16.9523 112.264 16.7813C111.865 16.6103 111.433 16.5248 110.969 16.5248C110.512 16.5248 110.097 16.6103 109.722 16.7813C109.355 16.9523 109.041 17.2128 108.781 17.563C108.528 17.905 108.332 18.3448 108.194 18.8822C108.055 19.4114 107.986 20.0385 107.986 20.7632C107.986 21.4961 108.043 22.1191 108.157 22.6321C108.279 23.1369 108.45 23.5522 108.671 23.878C108.891 24.1956 109.16 24.4277 109.478 24.5742C109.795 24.7126 110.15 24.7819 110.541 24.7819Z" fill="#969FA4"/>
<path fill-rule="evenodd" clip-rule="evenodd" d="M7.0845 7.30328C7.62932 5.43968 9.58265 4.37033 11.4474 4.91481L23.199 8.34611C25.0637 8.89059 26.1338 10.8428 25.5889 12.7063L20.3269 30.7052C19.7821 32.5688 17.8287 33.6381 15.964 33.0936L4.21246 29.6623C2.34769 29.1179 1.27767 27.1657 1.8225 25.3021L7.0845 7.30328ZM10.6886 7.51046C10.2583 7.38481 9.80752 7.63159 9.68181 8.06165L4.41977 26.0604C4.29404 26.4905 4.54097 26.941 4.9713 27.0667L16.7228 30.4979C17.1531 30.6236 17.604 30.3769 17.7297 29.9468L22.9917 11.9479C23.1174 11.5179 22.8704 11.0674 22.4401 10.9418L10.6886 7.51046Z" fill="#969FA4"/>
<path fill-rule="evenodd" clip-rule="evenodd" d="M14.4257 4.13861C14.9705 2.27501 16.9239 1.20565 18.7886 1.75014L30.5402 5.18144C32.4049 5.72592 33.4749 7.67807 32.9301 9.54165L27.6681 27.5404C27.1233 29.404 25.1699 30.4734 23.3052 29.929L11.5536 26.4976C9.68886 25.9531 8.61885 24.001 9.16369 22.1374L14.4257 4.13861ZM18.0298 4.34579C17.5995 4.22014 17.1486 4.46692 17.0229 4.89698L11.7609 22.8958C11.6352 23.3258 11.8822 23.7763 12.3125 23.902L24.064 27.3333C24.4943 27.4589 24.9451 27.2121 25.0708 26.7821L30.3328 8.78328C30.4585 8.35322 30.2117 7.90273 29.7812 7.77708L18.0298 4.34579Z" fill="#969FA4"/>
</svg>
