<svg width="124" height="34" viewBox="0 0 124 34" fill="none" xmlns="http://www.w3.org/2000/svg">
<g clip-path="url(#clip0_2_716)">
<path fill-rule="evenodd" clip-rule="evenodd" d="M17.8203 2.64136C18.1568 2.53326 18.5228 2.56894 18.8325 2.74007C19.5099 3.11446 20.0253 3.76435 20.4087 4.41461C20.8076 5.09107 21.142 5.90188 21.4021 6.76325C21.9202 8.47868 22.1889 10.5461 21.9992 12.4332C21.9276 13.1455 21.2956 13.6646 20.5876 13.5926C19.8795 13.5205 19.3636 12.8847 19.4353 12.1724C19.5855 10.6773 19.3711 8.95662 18.9364 7.517C18.8163 7.11962 18.6831 6.75538 18.5423 6.43216C18.1216 7.51364 17.6888 8.70534 17.4958 9.35166C17.291 10.0373 16.5725 10.4262 15.891 10.2201C15.2095 10.0141 14.823 9.29121 15.0278 8.60553C15.4032 7.34824 16.5365 4.38454 17.0522 3.31188C17.206 2.99188 17.4837 2.74947 17.8203 2.64136Z" fill="#969FA4"/>
<path fill-rule="evenodd" clip-rule="evenodd" d="M13.7518 8.57044C14.0081 7.75093 14.8762 7.29564 15.6908 7.55355C16.495 7.80818 17.2805 8.14931 18.0444 8.54508L18.049 8.5475C21.6175 10.4116 24.2052 13.5579 24.9112 16.8039C24.9218 16.8445 24.9378 16.879 24.954 16.9043C24.9695 16.9284 24.9806 16.9372 24.9808 16.9374L24.9901 16.944L27.6223 18.8468L27.6262 18.8496C28.5629 19.5312 28.8042 20.6468 28.7586 21.4511C28.7133 22.2533 28.3466 23.348 27.3133 23.9086L27.3063 23.9124C25.9591 24.6343 24.3322 24.858 21.8489 24.4152C21.8376 24.4132 21.8263 24.4111 21.8151 24.4088C21.757 24.3971 21.6958 24.3876 21.5902 24.3712L21.5821 24.37C21.4996 24.3572 21.3796 24.3386 21.2524 24.312C19.3439 24.0076 18.0738 24.0415 17.2887 24.254C16.5886 24.4437 16.408 24.7225 16.3239 24.997C15.7376 26.946 16.2738 28.0908 17.0017 29.645C17.1178 29.8928 17.2386 30.151 17.3606 30.4245C17.7103 31.2083 17.3622 32.1289 16.5832 32.4807C15.8041 32.8325 14.889 32.4823 14.5394 31.6985C14.4508 31.4999 14.3498 31.2896 14.2427 31.0669C13.4799 29.4797 12.4118 27.2571 13.3651 24.0922L13.3665 24.0876C13.8252 22.5815 14.9817 21.6568 16.485 21.2497C17.8999 20.8666 19.6921 20.9095 21.7806 21.2461C21.8112 21.2511 21.8416 21.2569 21.8718 21.2637C21.9054 21.2713 21.953 21.2795 22.0552 21.2953C22.0627 21.2964 22.0706 21.2977 22.0789 21.2989C22.1617 21.3117 22.2806 21.3301 22.4034 21.3543C24.2248 21.6773 25.1079 21.5059 25.661 21.2601L23.1897 19.4736C22.5088 18.9871 22.0769 18.2612 21.9004 17.5146C21.8979 17.5043 21.8956 17.4938 21.8934 17.4834C21.427 15.3127 19.5586 12.8425 16.6262 11.3099C15.9844 10.9776 15.3641 10.7118 14.7625 10.5214C13.9479 10.2634 13.4954 9.38996 13.7518 8.57044Z" fill="#969FA4"/>
<path fill-rule="evenodd" clip-rule="evenodd" d="M10.0996 5.17723C10.0658 5.63867 10.0299 6.08892 9.99585 6.50959C9.98361 6.66032 9.97177 6.80574 9.96033 6.94551C9.87825 7.95194 9.82009 8.66534 9.82009 8.95639C9.82009 9.53928 9.52249 10.2089 8.84553 10.5499C8.08825 10.9313 7.04268 11.5186 6.1093 12.2135C6.09654 12.223 6.08382 12.2325 6.07118 12.2419C6.33358 12.3134 6.53984 12.3884 6.67454 12.4418C7.35678 12.6999 7.66632 13.3177 7.71149 13.8182C7.75298 14.278 7.60095 14.771 7.23804 15.1366C7.18974 15.1853 7.13828 15.2307 7.08401 15.2724C6.81287 15.4813 5.86156 16.26 5.01628 17.48C4.58017 18.1095 4.18706 18.834 3.92278 19.6428C5.16816 19.4332 6.45544 20.6499 5.86992 22.0694C5.38346 23.3496 4.097 27.1923 4.39058 31.148C4.45417 32.0048 3.81537 32.7512 2.96378 32.8151C2.1122 32.8791 1.3703 32.2364 1.30672 31.3796C1.10097 28.6072 1.54567 25.9366 2.05181 23.9334C1.85581 23.9113 1.66338 23.8564 1.4831 23.7693C0.951504 23.5122 0.521825 22.9606 0.499595 22.2528C0.362688 19.5156 1.38589 17.279 2.47938 15.7008C2.55193 15.5961 2.62502 15.4939 2.6984 15.3943C2.3373 15.3254 2.01387 15.1448 1.77468 14.9038C1.30562 14.4312 1.09828 13.6722 1.41031 12.952C1.98238 11.6171 3.1935 10.5137 4.26978 9.71249C5.11573 9.08267 6.01174 8.5434 6.76565 8.13249C6.79369 7.7204 6.83423 7.22613 6.87674 6.70783C6.88895 6.55891 6.90133 6.40801 6.91362 6.25651C7.00898 5.08093 7.11123 3.7471 7.15022 2.59622C7.1608 2.21083 7.30879 1.8262 7.59454 1.52725C7.85383 1.256 8.14073 1.14466 8.29617 1.09767C8.46001 1.04816 8.59849 1.03439 8.67033 1.02922C8.74185 1.02407 8.80353 1.02427 8.81497 1.0243L8.81641 1.02431C8.98681 1.02431 9.15601 1.05264 9.31721 1.10816C10.8486 1.63559 12.1536 2.73956 13.2776 3.96353C14.4115 5.19835 15.4796 6.68986 16.4926 8.14487C16.9826 8.84853 16.8127 9.81865 16.1133 10.3116C15.4138 10.8045 14.4497 10.6336 13.9598 9.92989C12.9434 8.46993 11.982 7.13758 11.0062 6.07487C10.6942 5.73521 10.3924 5.43622 10.0996 5.17723ZM5.53976 15.336C5.57042 15.3486 5.60194 15.3603 5.63434 15.3713C5.60558 15.3616 5.57711 15.3511 5.54898 15.3397C5.54596 15.3385 5.54289 15.3373 5.53976 15.336Z" fill="#969FA4"/>
<path d="M44.5835 12.4583C44.041 13.0251 43.1368 13.0454 42.5541 12.5393C42.2326 12.2357 41.7905 12.0333 41.3283 12.0333C40.3438 12.0333 39.5401 12.8632 39.5401 13.8956V16.8511H41.7905C42.5742 16.8511 43.2372 17.4988 43.2372 18.2882C43.2372 19.0979 42.5742 19.7457 41.7905 19.7457H39.5401V25.7983C39.5401 26.5877 38.877 27.2558 38.0732 27.2558C37.2896 27.2558 36.6265 26.5877 36.6265 25.7983V25.7578C36.6265 23.855 36.6265 21.9522 36.6265 20.0696V13.8753C36.6265 11.2641 38.7564 9.13855 41.3283 9.13855C42.5139 9.13855 43.6391 9.58389 44.5232 10.3936C45.0859 10.9604 45.1059 11.8714 44.5835 12.4583Z" fill="#969FA4"/>
<path d="M49.8675 27.2759C46.6124 27.2759 43.94 24.6039 43.94 21.3043C43.94 18.025 46.6124 15.3327 49.8675 15.3327C53.1226 15.3327 55.7951 18.025 55.8152 21.3245C55.7951 24.6241 53.1226 27.2759 49.8675 27.2759ZM49.8675 18.2679C48.1998 18.2679 46.8334 19.6242 46.8334 21.3245C46.8334 23.0047 48.1797 24.3812 49.8675 24.3812C51.5353 24.3812 52.9017 23.0249 52.9017 21.3245C52.8815 19.6242 51.5353 18.2679 49.8675 18.2679Z" fill="#969FA4"/>
<path d="M62.9085 27.2558C61.3412 27.2558 59.9146 26.6688 58.7893 25.5959C57.6641 24.4826 57.0211 23.0048 56.9608 21.4057C56.9407 19.8268 57.5034 18.3085 58.6286 17.1749C59.7136 16.0414 61.1804 15.3936 62.7679 15.3329C64.3552 15.3126 65.8421 15.8997 66.9674 17.013C67.5299 17.5393 67.5501 18.4705 67.0075 19.0171C66.465 19.5839 65.5608 19.6041 64.9982 19.0576C64.4155 18.4908 63.6319 18.1669 62.808 18.1669C61.9842 18.1669 61.2207 18.5312 60.6379 19.1182C60.0954 19.7053 59.7538 20.4947 59.794 21.3247C59.794 22.1344 60.1557 22.9442 60.7384 23.4907C61.3211 24.0777 62.1047 24.4016 62.9085 24.3813C63.6921 24.3813 64.4155 24.0777 64.9781 23.5514C65.5207 23.0048 66.4449 23.0453 66.9674 23.6324C67.5099 24.1992 67.4697 25.1101 66.887 25.6567C65.822 26.6485 64.4355 27.2356 62.9687 27.2558H62.9085Z" fill="#969FA4"/>
<path d="M74.4619 27.3975C71.3875 27.3975 68.8558 24.7052 68.8558 21.4259V16.8713C68.8558 16.0818 69.4385 15.4341 70.1819 15.4341C70.9455 15.4341 71.6689 16.0818 71.6689 16.8713V21.4259C71.6689 23.1465 73.0955 24.523 74.4619 24.523C76.0694 24.523 77.275 23.1465 77.275 21.4259V17.0737C77.275 16.264 78.0987 15.6365 78.7418 15.6365C79.4651 15.6365 80.0879 16.264 80.0879 17.0737V21.4259C80.0879 24.7052 77.5763 27.3975 74.4619 27.3975Z" fill="#969FA4"/>
<path d="M85.9959 27.3772C84.4887 27.3772 82.9615 26.7497 82.1983 26.0209C81.6351 25.4946 81.5751 24.5837 82.1175 24.0169C82.6399 23.4299 83.5439 23.3894 84.1071 23.9157C84.5287 24.3205 86.1159 24.8671 87.0207 24.2801C87.2615 24.1384 87.4023 23.8752 87.4023 23.6121C87.4023 23.2882 87.1207 23.0453 86.8799 22.944C86.6591 22.8226 86.2967 22.8226 85.8551 22.8226C85.2927 22.8226 84.6495 22.8024 83.9863 22.5595C82.7607 22.1546 81.7559 20.8793 81.6759 19.6242C81.5551 18.1263 82.1983 17.1951 82.7407 16.6688C83.9263 15.5757 85.6543 15.4138 86.8999 15.6162C87.8439 15.7781 88.5479 16.1223 89.1503 16.6688C89.7127 17.1951 89.7735 18.1061 89.2511 18.6729C88.9495 18.9968 88.4871 19.1789 88.0455 19.1182C87.8239 19.0979 87.6231 19.017 87.4223 18.8955C87.1007 18.6526 86.8599 18.4906 86.4375 18.4097C85.7343 18.2882 84.4079 18.3287 84.5087 19.3611C84.5287 19.4826 84.7495 19.7862 84.9311 19.8672C85.1719 19.9481 85.5135 19.9481 85.8951 19.9481C86.5183 19.9684 87.2815 19.9684 88.0655 20.3328C89.3711 20.9198 90.2151 22.2153 90.2151 23.5918C90.2151 24.8064 89.5927 25.94 88.5879 26.6485C87.7839 27.195 86.8999 27.3772 85.9959 27.3772Z" fill="#969FA4"/>
<path d="M99.8191 12.4584C99.2767 13.0251 98.3727 13.0453 97.7903 12.5393C97.4687 12.2356 97.0263 12.0332 96.5639 12.0332C95.5799 12.0332 94.7759 12.8632 94.7759 13.8955V16.851H97.0263C97.8103 16.851 98.4735 17.4987 98.4735 18.2882C98.4735 19.098 97.8103 19.7457 97.0263 19.7457H94.7759V25.7982C94.7759 26.5877 94.1127 27.2557 93.3095 27.2557C92.5255 27.2557 91.8623 26.5877 91.8623 25.7982V25.7578C91.8623 23.8549 91.8623 21.9521 91.8623 20.0696V13.8753C91.8623 11.264 93.9927 9.13855 96.5639 9.13855C97.7495 9.13855 98.8751 9.58389 99.7591 10.3936C100.322 10.9604 100.342 11.8713 99.8191 12.4584Z" fill="#969FA4"/>
<path d="M105.085 27.2759C101.83 27.2759 99.1575 24.6039 99.1575 21.3043C99.1575 18.025 101.83 15.3327 105.085 15.3327C108.34 15.3327 111.012 18.025 111.033 21.3245C111.012 24.6241 108.34 27.2759 105.085 27.2759ZM105.085 18.2679C103.417 18.2679 102.05 19.6242 102.05 21.3245C102.05 23.0047 103.397 24.3812 105.085 24.3812C106.773 24.3812 108.119 23.0249 108.119 21.3245C108.119 19.6242 106.773 18.2679 105.085 18.2679Z" fill="#969FA4"/>
<path d="M122.807 24.9076C123.33 25.4541 123.31 26.3447 122.767 26.8913C122.506 27.1545 122.144 27.2759 121.802 27.2759C121.441 27.2759 121.099 27.1343 120.818 26.8509L117.502 23.3893L114.247 26.7901C113.986 27.0735 113.625 27.2152 113.263 27.2152C112.942 27.2152 112.58 27.0938 112.298 26.8306C111.756 26.2841 111.736 25.3934 112.278 24.8468L115.614 21.365L112.258 17.8631C111.736 17.2963 111.736 16.4056 112.298 15.8793C112.841 15.3327 113.725 15.353 114.267 15.8995L117.522 19.3206L120.858 15.8388C121.381 15.2922 122.245 15.272 122.827 15.8186C123.37 16.3449 123.39 17.2153 122.847 17.8023L119.472 21.3448L122.807 24.9076Z" fill="#969FA4"/>
</g>
<defs>
<clipPath id="clip0_2_716">
<rect width="124" height="33" fill="white" transform="translate(0.00872803 0.421875)"/>
</clipPath>
</defs>
</svg>
