<svg width="148" height="34" viewBox="0 0 148 34" fill="none" xmlns="http://www.w3.org/2000/svg">
<path d="M49.2028 26.7262C47.3167 26.7262 45.664 26.2999 44.2448 25.4475C42.8436 24.595 41.7389 23.4182 40.9305 21.9171C40.1402 20.3975 39.7449 18.6462 39.7449 16.6632C39.7449 14.6803 40.1402 12.9382 40.9305 11.4371C41.7389 9.91751 42.8436 8.73143 44.2448 7.87894C45.664 7.02646 47.3167 6.60022 49.2028 6.60022C51.071 6.60022 52.7148 7.02646 54.1339 7.87894C55.553 8.73143 56.6578 9.91751 57.4482 11.4371C58.2386 12.9382 58.6338 14.6803 58.6338 16.6632C58.6338 18.6462 58.2386 20.3975 57.4482 21.9171C56.6578 23.4182 55.553 24.595 54.1339 25.4475C52.7148 26.2999 51.071 26.7262 49.2028 26.7262ZM49.2028 23.5294C50.9992 23.5294 52.4273 22.9178 53.4872 21.6947C54.565 20.4716 55.1039 18.7944 55.1039 16.6632C55.1039 14.532 54.565 12.8548 53.4872 11.6317C52.4273 10.4086 50.9992 9.79702 49.2028 9.79702C47.4065 9.79702 45.9693 10.4086 44.8915 11.6317C43.8137 12.8548 43.2748 14.532 43.2748 16.6632C43.2748 18.7944 43.8137 20.4716 44.8915 21.6947C45.9693 22.9178 47.4065 23.5294 49.2028 23.5294Z" fill="#969FA4"/>
<path d="M61.5982 32.5083V12.6046H64.67L65.0473 14.5783C65.4784 13.9668 66.0443 13.4294 66.7449 12.966C67.4634 12.5027 68.3885 12.2711 69.5202 12.2711C70.7777 12.2711 71.9004 12.5861 72.8885 13.2162C73.8764 13.8463 74.6579 14.7081 75.2327 15.8015C75.8076 16.8948 76.0949 18.1365 76.0949 19.5264C76.0949 20.9163 75.8076 22.158 75.2327 23.2514C74.6579 24.3262 73.8764 25.1788 72.8885 25.8089C71.9004 26.4204 70.7777 26.7262 69.5202 26.7262C68.5143 26.7262 67.6341 26.5316 66.8796 26.1424C66.1251 25.7533 65.5143 25.2066 65.0473 24.5023V32.5083H61.5982ZM68.7927 23.6128C69.8885 23.6128 70.7957 23.2329 71.5142 22.4731C72.2328 21.7132 72.592 20.731 72.592 19.5264C72.592 18.3218 72.2328 17.3303 71.5142 16.552C70.7957 15.7737 69.8885 15.3845 68.7927 15.3845C67.679 15.3845 66.7629 15.7737 66.0443 16.552C65.3436 17.3119 64.9934 18.294 64.9934 19.4986C64.9934 20.7032 65.3436 21.6947 66.0443 22.4731C66.7629 23.2329 67.679 23.6128 68.7927 23.6128Z" fill="#969FA4"/>
<path d="M84.6047 26.3926C83.2036 26.3926 82.0808 26.0405 81.2365 25.3362C80.3922 24.632 79.9701 23.3811 79.9701 21.5835V15.5791H77.6797V12.6046H79.9701L80.3743 8.90747H83.4192V12.6046H87.0298V15.5791H83.4192V21.6113C83.4192 22.2785 83.5539 22.7418 83.8233 23.0013C84.1108 23.2422 84.5957 23.3626 85.2784 23.3626H86.949V26.3926H84.6047Z" fill="#969FA4"/>
<path d="M91.8504 10.4642C91.2217 10.4642 90.7007 10.2696 90.2875 9.88044C89.8924 9.49123 89.6948 9.00012 89.6948 8.40709C89.6948 7.81406 89.8924 7.33222 90.2875 6.96158C90.7007 6.5724 91.2217 6.37781 91.8504 6.37781C92.4791 6.37781 92.9911 6.5724 93.3865 6.96158C93.7998 7.33222 94.0064 7.81406 94.0064 8.40709C94.0064 9.00012 93.7998 9.49123 93.3865 9.88044C92.9911 10.2696 92.4791 10.4642 91.8504 10.4642ZM90.1258 26.3926V12.6046H93.5745V26.3926H90.1258Z" fill="#969FA4"/>
<path d="M97.1749 26.3926V12.6046H100.22L100.517 14.4672C100.948 13.8 101.513 13.2718 102.213 12.8826C102.932 12.4749 103.759 12.2711 104.693 12.2711C106.759 12.2711 108.223 13.0958 109.085 14.7451C109.57 13.9853 110.217 13.383 111.025 12.9382C111.851 12.4935 112.749 12.2711 113.719 12.2711C115.462 12.2711 116.8 12.8085 117.735 13.8833C118.668 14.9582 119.136 16.5334 119.136 18.609V26.3926H115.686V18.9426C115.686 17.7566 115.462 16.8485 115.013 16.2184C114.582 15.5883 113.908 15.2733 112.992 15.2733C112.058 15.2733 111.304 15.6254 110.729 16.3296C110.172 17.0338 109.894 18.0161 109.894 19.2762V26.3926H106.444V18.9426C106.444 17.7566 106.22 16.8485 105.77 16.2184C105.321 15.5883 104.63 15.2733 103.695 15.2733C102.779 15.2733 102.034 15.6254 101.459 16.3296C100.903 17.0338 100.624 18.0161 100.624 19.2762V26.3926H97.1749Z" fill="#969FA4"/>
<path d="M128.904 26.7262C127.557 26.7262 126.363 26.4297 125.32 25.8366C124.278 25.2436 123.461 24.4097 122.868 23.3348C122.275 22.2599 121.979 21.0182 121.979 19.6098C121.979 18.1829 122.266 16.9134 122.841 15.8015C123.434 14.6895 124.242 13.8278 125.266 13.2162C126.309 12.5861 127.53 12.2711 128.931 12.2711C130.242 12.2711 131.401 12.5676 132.407 13.1606C133.413 13.7536 134.194 14.5691 134.751 15.6069C135.326 16.6261 135.613 17.7658 135.613 19.0261C135.613 19.2299 135.605 19.443 135.587 19.6654C135.587 19.8878 135.578 20.1195 135.56 20.3604H125.401C125.473 21.4353 125.832 22.2784 126.479 22.89C127.144 23.5016 127.943 23.8074 128.877 23.8074C129.578 23.8074 130.161 23.6498 130.629 23.3348C131.113 23.0012 131.473 22.575 131.706 22.056H135.209C134.958 22.927 134.536 23.7239 133.943 24.4467C133.368 25.151 132.649 25.7069 131.787 26.1147C130.943 26.5223 129.982 26.7262 128.904 26.7262ZM128.931 15.162C128.086 15.162 127.341 15.4123 126.695 15.9127C126.048 16.3945 125.635 17.1357 125.455 18.1365H132.11C132.056 17.2284 131.733 16.5057 131.14 15.9682C130.548 15.4308 129.811 15.162 128.931 15.162Z" fill="#969FA4"/>
<path d="M138.514 26.3926V12.6046H141.586L141.909 15.1899C142.394 14.3004 143.05 13.5961 143.877 13.0772C144.721 12.5398 145.709 12.2711 146.841 12.2711V16.0238H145.871C145.116 16.0238 144.443 16.1443 143.85 16.3852C143.257 16.6261 142.79 17.0431 142.448 17.6361C142.125 18.2292 141.963 19.0539 141.963 20.1102V26.3926H138.514Z" fill="#969FA4"/>
<path d="M29.9074 8.76076L11.8293 27.6525C11.7129 27.7742 11.5095 27.6892 11.5117 27.5198L11.6285 18.2424C11.6293 18.1738 11.6671 18.1112 11.727 18.0791L29.6883 8.46484C29.8744 8.36524 30.0539 8.60768 29.9074 8.76076Z" fill="#969FA4" fill-opacity="0.8"/>
<path d="M30.7775 7.24878L30.5386 7.5914L10.0091 18.6975L2.51371 13.7219C2.33883 13.6005 2.38642 13.3228 2.59866 13.2832L30.7775 7.24878Z" fill="#969FA4"/>
<path fill-rule="evenodd" clip-rule="evenodd" d="M31.0855 7.0429C31.1691 7.1716 31.1664 7.33903 31.0787 7.46488L30.8397 7.80752C30.8065 7.85519 30.7628 7.89435 30.7119 7.92184L10.1824 19.0279C10.0631 19.0924 9.91858 19.0859 9.80549 19.0108L2.31016 14.0353C2.30799 14.0338 2.30583 14.0324 2.30369 14.0309C1.88419 13.7394 1.96305 13.0254 2.52523 12.916L30.7001 6.88239C30.8489 6.85052 31.0018 6.91421 31.0855 7.0429ZM2.97992 13.5843L10.0275 18.2625L28.959 8.02089L2.97992 13.5843Z" fill="#969FA4"/>
<path fill-rule="evenodd" clip-rule="evenodd" d="M31.1261 7.37088C31.1861 7.19556 31.1103 7.00215 30.948 6.91622C30.7856 6.83028 30.5856 6.87772 30.4778 7.02775L30.2889 7.29052L9.72746 18.6288C9.58616 18.7066 9.51085 18.8681 9.54101 19.0281L11.1316 27.4534C11.1626 27.6174 11.2968 27.7408 11.4609 27.7561C11.6249 27.7714 11.7793 27.6748 11.8392 27.5194L14.2806 21.1896L30.8013 8.13608C30.8576 8.09165 30.8998 8.0317 30.9232 7.96346L31.1261 7.37088Z" fill="url(#paint0_linear_2_746)"/>
<path d="M30.7765 7.24817L24.5979 27.2726C24.55 27.421 24.3703 27.487 24.2384 27.4046L16.2032 22.3687L14.4963 21.2045L30.2675 7.926C30.4637 7.76079 30.6241 7.55622 30.7384 7.32518L30.7765 7.24817Z" fill="#969FA4"/>
<path fill-rule="evenodd" clip-rule="evenodd" d="M30.9154 6.90086C31.0941 6.97393 31.1874 7.17366 31.1299 7.35989L24.9512 27.3843L24.9498 27.3888C24.8269 27.7704 24.378 27.9315 24.0448 27.7234L16.0091 22.6872C16.005 22.6846 16.001 22.682 15.9971 22.6793L14.2903 21.5151C14.1937 21.4492 14.1333 21.3411 14.1275 21.2233C14.1216 21.1055 14.1709 20.9918 14.2604 20.9164L30.0316 7.63794C30.1886 7.50577 30.3168 7.34212 30.4083 7.15729L30.4464 7.08028C30.5328 6.90586 30.7368 6.82779 30.9154 6.90086ZM29.9467 8.68348L15.1127 21.1729L16.4043 22.0539L24.2952 26.9995L29.9467 8.68348Z" fill="#969FA4"/>
<defs>
<linearGradient id="paint0_linear_2_746" x1="24.3656" y1="3.70432" x2="11.9103" y2="30.8448" gradientUnits="userSpaceOnUse">
<stop offset="0.0001" stop-color="#ABB3B7"/>
<stop offset="1" stop-color="#BBD3DF"/>
</linearGradient>
</defs>
</svg>
