<svg width="159" height="28" viewBox="0 0 159 28" fill="none" xmlns="http://www.w3.org/2000/svg">
<g clip-path="url(#clip0_2_728)">
<path opacity="0.4" d="M28.1793 10.6732L17.456 18.2534H12.6899L1.96661 10.6732L15.073 2.01007L28.1793 10.6732Z" fill="#969FA4"/>
<path fill-rule="evenodd" clip-rule="evenodd" d="M14.4668 1.10906C14.8337 0.866561 15.3116 0.866561 15.6785 1.10906L28.7848 9.77218C29.0887 9.97302 29.2712 10.3111 29.2712 10.6732V24.7507C29.2712 25.3251 29.0411 25.876 28.6313 26.2822C28.2217 26.6884 27.6661 26.9166 27.0868 26.9166H3.05847C2.47914 26.9166 1.92353 26.6884 1.51388 26.2822C1.10422 25.876 0.874084 25.3251 0.874084 24.7507V10.6732C0.874084 10.3111 1.05659 9.97302 1.36044 9.77218L14.4668 1.10906ZM3.05847 11.2527V24.7507H27.0868V11.2527L15.0726 3.31155L3.05847 11.2527Z" fill="#969FA4"/>
<path fill-rule="evenodd" clip-rule="evenodd" d="M13.5819 17.6286C13.93 18.1171 13.8127 18.7929 13.32 19.1379L2.93342 26.4121C2.44074 26.7572 1.75921 26.6408 1.4112 26.1524C1.06318 25.6638 1.18046 24.9881 1.67315 24.6431L12.0598 17.3689C12.5524 17.0238 13.234 17.1401 13.5819 17.6286Z" fill="#969FA4"/>
<path fill-rule="evenodd" clip-rule="evenodd" d="M16.5637 17.6285C16.9116 17.1401 17.5932 17.0238 18.0859 17.3688L28.4727 24.6431C28.9653 24.9881 29.0826 25.6638 28.7347 26.1523C28.3866 26.6409 27.7051 26.7571 27.2124 26.4121L16.8256 19.1378C16.3329 18.7927 16.2156 18.117 16.5637 17.6285Z" fill="#969FA4"/>
<path fill-rule="evenodd" clip-rule="evenodd" d="M1.07705 10.0445C1.42723 9.55756 2.10926 9.44425 2.60041 9.7915L13.0392 17.1705H17.1062L27.5451 9.7915C28.0362 9.44425 28.7182 9.55756 29.0684 10.0445C29.4185 10.5316 29.3042 11.2078 28.8131 11.5549L18.0898 19.1352C17.9047 19.266 17.6831 19.3363 17.4558 19.3363H12.6897C12.4624 19.3363 12.2407 19.266 12.0556 19.1352L1.33231 11.5549C0.841164 11.2078 0.72688 10.5316 1.07705 10.0445Z" fill="#969FA4"/>
<path d="M41.0254 22.9257C40.7325 22.9257 40.4859 22.8264 40.2856 22.6277C40.0852 22.429 39.9851 22.1845 39.9851 21.8943V8.21141C39.9851 7.79886 40.1315 7.44742 40.4243 7.15711C40.7171 6.85152 41.0716 6.69873 41.4877 6.69873H41.7881C42.2813 6.69873 42.7051 6.92792 43.0596 7.38631L51.9594 20.1295V7.75302C51.9594 7.46271 52.0595 7.21824 52.2599 7.0196C52.4602 6.80569 52.7068 6.69873 52.9996 6.69873C53.2924 6.69873 53.539 6.80569 53.7393 7.0196C53.9551 7.21824 54.0629 7.46271 54.0629 7.75302V21.4359C54.0629 21.8484 53.9088 22.1999 53.6006 22.4902C53.3078 22.7805 52.9534 22.9257 52.5372 22.9257H52.2599C52.0133 22.9257 51.7821 22.8722 51.5664 22.7652C51.3506 22.6429 51.1734 22.4902 51.0347 22.3068L42.0887 9.49489V21.8943C42.0887 22.1845 41.9808 22.429 41.765 22.6277C41.5647 22.8264 41.3182 22.9257 41.0254 22.9257Z" fill="#969FA4"/>
<path d="M63.0104 23.0403C61.8238 23.0403 60.7836 22.7882 59.8897 22.284C58.9959 21.7797 58.3025 21.0692 57.8093 20.1524C57.3315 19.2204 57.0927 18.1584 57.0927 16.9666C57.0927 15.7749 57.3315 14.7206 57.8093 13.8038C58.3025 12.8717 58.9959 12.1536 59.8897 11.6494C60.7836 11.1452 61.8238 10.893 63.0104 10.893C64.1817 10.893 65.2142 11.1452 66.108 11.6494C67.0019 12.1536 67.6953 12.8717 68.1885 13.8038C68.6816 14.7206 68.9282 15.7749 68.9282 16.9666C68.9282 18.1584 68.6816 19.2204 68.1885 20.1524C67.6953 21.0692 67.0019 21.7797 66.108 22.284C65.2142 22.7882 64.1817 23.0403 63.0104 23.0403ZM63.0104 21.1379C63.6423 21.1379 64.2433 20.9928 64.8136 20.7025C65.3991 20.4122 65.8768 19.9538 66.2467 19.3274C66.632 18.7009 66.8247 17.9063 66.8247 16.9437C66.8247 15.9964 66.632 15.2095 66.2467 14.583C65.8768 13.9565 65.3991 13.5058 64.8136 13.2308C64.2433 12.9405 63.6423 12.7953 63.0104 12.7953C62.3632 12.7953 61.7468 12.9405 61.1611 13.2308C60.5909 13.5058 60.1209 13.9565 59.751 14.583C59.3812 15.2095 59.1963 15.9964 59.1963 16.9437C59.1963 17.9063 59.3812 18.7009 59.751 19.3274C60.1209 19.9538 60.5909 20.4122 61.1611 20.7025C61.7468 20.9928 62.3632 21.1379 63.0104 21.1379Z" fill="#969FA4"/>
<path d="M75.2288 22.9257C74.9206 22.9257 74.6432 22.834 74.3966 22.6506C74.1501 22.4673 73.9805 22.2381 73.8881 21.9631L70.6056 12.4286C70.5593 12.2911 70.5362 12.1612 70.5362 12.0389C70.5362 11.7486 70.6364 11.5042 70.8367 11.3056C71.0371 11.1069 71.2837 11.0076 71.5765 11.0076C71.7922 11.0076 71.9848 11.0687 72.1544 11.191C72.3393 11.2979 72.4626 11.4431 72.5242 11.6265L75.2288 20.4504L77.9104 11.8327C77.9874 11.5882 78.1261 11.3896 78.3264 11.2368C78.5421 11.084 78.7811 11.0076 79.043 11.0076C79.305 11.0076 79.5362 11.084 79.7365 11.2368C79.9522 11.3896 80.0987 11.5882 80.1757 11.8327L82.8572 20.4504L85.5619 11.6265C85.6234 11.4431 85.7391 11.2979 85.9086 11.191C86.0935 11.0687 86.2939 11.0076 86.5096 11.0076C86.8024 11.0076 87.049 11.1069 87.2493 11.3056C87.4497 11.5042 87.5498 11.7486 87.5498 12.0389C87.5498 12.1612 87.5267 12.2911 87.4805 12.4286L84.198 21.9631C84.1055 22.2381 83.936 22.4673 83.6894 22.6506C83.4429 22.834 83.1654 22.9257 82.8572 22.9257C82.549 22.9257 82.2716 22.834 82.025 22.6506C81.7785 22.4673 81.6013 22.2305 81.4934 21.9401L79.043 14.3538L76.5927 21.9401C76.4848 22.2305 76.3076 22.4673 76.061 22.6506C75.8145 22.834 75.537 22.9257 75.2288 22.9257Z" fill="#969FA4"/>
<path fill-rule="evenodd" clip-rule="evenodd" d="M43.1806 7.29367C43.1821 7.29563 43.1835 7.29761 43.1849 7.29963L51.8048 19.642V7.75306C51.8048 7.42482 51.9195 7.14183 52.1483 6.91393C52.3773 6.67053 52.6638 6.54645 52.9987 6.54645C53.3326 6.54645 53.6185 6.66984 53.8471 6.91187C54.0912 7.13851 54.2157 7.42201 54.2157 7.75306V21.4359C54.2157 21.8906 54.044 22.2812 53.707 22.5993C53.3855 22.9174 52.9923 23.078 52.5363 23.078H52.2589C51.9891 23.078 51.7343 23.0192 51.4968 22.9015C51.4942 22.9002 51.4917 22.8988 51.4892 22.8975C51.2567 22.7658 51.0631 22.5995 50.9109 22.3982L50.9075 22.3936L42.2414 9.98257V21.8943C42.2414 22.2263 42.1162 22.5105 41.8708 22.7375C41.6409 22.9643 41.3555 23.078 41.0244 23.078C40.6924 23.078 40.4063 22.9637 40.1761 22.7355C39.9458 22.5072 39.8306 22.2235 39.8306 21.8943V8.21144C39.8306 7.75937 39.9926 7.36961 40.3134 7.05083C40.6343 6.71664 41.0282 6.54645 41.4867 6.54645H41.7872C42.3371 6.54645 42.803 6.80536 43.1806 7.29367ZM40.4234 7.15715C40.7162 6.85157 41.0707 6.69877 41.4867 6.69877H41.7872C42.2804 6.69877 42.7042 6.92796 43.0586 7.38635L51.9585 20.1295V7.75306C51.9585 7.46275 52.0586 7.21827 52.2589 7.01964C52.4593 6.80573 52.7059 6.69877 52.9987 6.69877C53.2915 6.69877 53.538 6.80573 53.7384 7.01964C53.9542 7.21827 54.062 7.46275 54.062 7.75306V21.4359C54.062 21.8485 53.908 22.1999 53.5997 22.4902C53.3069 22.7805 52.9525 22.9257 52.5363 22.9257H52.2589C52.0124 22.9257 51.7812 22.8722 51.5655 22.7652C51.3497 22.643 51.1725 22.4902 51.0338 22.3069L42.0878 9.49492V21.8943C42.0878 22.1847 41.9799 22.4291 41.7641 22.6277C41.5638 22.8264 41.3173 22.9257 41.0244 22.9257C40.7316 22.9257 40.485 22.8264 40.2847 22.6277C40.0844 22.4291 39.9842 22.1847 39.9842 21.8943V8.21144C39.9842 7.7989 40.1306 7.44746 40.4234 7.15715ZM57.6713 20.2214C57.1812 19.2652 56.9381 18.1791 56.9381 16.9666C56.9381 15.7543 57.1812 14.6753 57.6719 13.7338L57.6723 13.733C58.1786 12.776 58.8926 12.0361 59.8128 11.517C60.7332 10.9978 61.8004 10.7407 63.0095 10.7407C64.2036 10.7407 65.263 10.9979 66.1831 11.517C67.1031 12.036 67.8169 12.7757 68.3233 13.7324C68.8298 14.6742 69.0809 15.7537 69.0809 16.9666C69.0809 18.1798 68.8298 19.2666 68.3236 20.2232L68.3231 20.2241C67.8166 21.1658 67.1027 21.8976 66.1831 22.4163C65.263 22.9353 64.2036 23.1926 63.0095 23.1926C61.8004 23.1926 60.7332 22.9355 59.8128 22.4163C58.8933 21.8976 58.1793 21.1658 57.6727 20.2241L57.6713 20.2214ZM68.1876 13.8038C67.6944 12.8717 67.0009 12.1535 66.1071 11.6493C65.2133 11.1451 64.1808 10.893 63.0095 10.893C61.8229 10.893 60.7826 11.1451 59.8888 11.6493C58.995 12.1535 58.3014 12.8717 57.8083 13.8038C57.3306 14.7205 57.0917 15.7749 57.0917 16.9666C57.0917 18.1584 57.3306 19.2204 57.8083 20.1524C58.3014 21.0692 58.995 21.7797 59.8888 22.2839C60.7826 22.7882 61.8229 23.0403 63.0095 23.0403C64.1808 23.0403 65.2133 22.7882 66.1071 22.2839C67.0009 21.7797 67.6944 21.0692 68.1876 20.1524C68.6807 19.2204 68.9273 18.1584 68.9273 16.9666C68.9273 15.7749 68.6807 14.7205 68.1876 13.8038ZM64.7424 20.567L64.7438 20.5662C65.2997 20.2907 65.7565 19.8545 66.1132 19.2504L66.1146 19.248C66.4813 18.6518 66.67 17.8869 66.67 16.9437C66.67 16.0164 66.4815 15.2589 66.1146 14.6624L66.1132 14.66C65.7569 14.0564 65.301 13.6287 64.7468 13.3685L64.7424 13.3664C64.1936 13.087 63.6166 12.9476 63.0095 12.9476C62.3863 12.9476 61.7935 13.0871 61.2289 13.3671L61.2274 13.3678C60.6886 13.6277 60.2397 14.0554 59.8827 14.66C59.5302 15.257 59.3489 16.0154 59.3489 16.9437C59.3489 17.8878 59.5304 18.6537 59.8827 19.2504C60.2398 19.8553 60.6894 20.2913 61.2297 20.5667C61.794 20.8462 62.3867 20.9857 63.0095 20.9857C63.6166 20.9857 64.1936 20.8464 64.7424 20.567ZM61.1602 20.7025C60.59 20.4122 60.1199 19.9538 59.7501 19.3274C59.3803 18.7009 59.1953 17.9064 59.1953 16.9437C59.1953 15.9964 59.3803 15.2095 59.7501 14.583C60.1199 13.9565 60.59 13.5058 61.1602 13.2308C61.7458 12.9405 62.3623 12.7954 63.0095 12.7954C63.6414 12.7954 64.2423 12.9405 64.8125 13.2308C65.3982 13.5058 65.8759 13.9565 66.2458 14.583C66.631 15.2095 66.8237 15.9964 66.8237 16.9437C66.8237 17.9064 66.631 18.7009 66.2458 19.3274C65.8759 19.9538 65.3982 20.4122 64.8125 20.7025C64.2423 20.9928 63.6414 21.1379 63.0095 21.1379C62.3623 21.1379 61.7458 20.9928 61.1602 20.7025ZM87.4796 12.4286L84.1971 21.9631C84.1046 22.2381 83.9351 22.4673 83.6885 22.6506C83.4419 22.834 83.1646 22.9257 82.8563 22.9257C82.5481 22.9257 82.2707 22.834 82.0242 22.6506C81.7776 22.4673 81.6003 22.2305 81.4924 21.9402L79.0422 14.3539L76.5918 21.9402C76.4839 22.2305 76.3067 22.4673 76.0602 22.6506C75.8136 22.834 75.5362 22.9257 75.2279 22.9257C74.9198 22.9257 74.6423 22.834 74.3958 22.6506C74.1492 22.4673 73.9796 22.2381 73.8872 21.9631L70.6046 12.4286C70.5584 12.2911 70.5353 12.1612 70.5353 12.039C70.5353 11.7486 70.6355 11.5042 70.8358 11.3056C71.0362 11.1069 71.2827 11.0076 71.5756 11.0076C71.7913 11.0076 71.984 11.0688 72.1534 11.191C72.3384 11.2979 72.4617 11.4431 72.5233 11.6264L75.2279 20.4504L77.9094 11.8327C77.9865 11.5882 78.1251 11.3896 78.3255 11.2368C78.5413 11.084 78.7801 11.0076 79.0422 11.0076C79.3041 11.0076 79.5352 11.084 79.7356 11.2368C79.9514 11.3896 80.0978 11.5882 80.1748 11.8327L82.8563 20.4504L85.5609 11.6264C85.6226 11.4431 85.7382 11.2979 85.9077 11.191C86.0926 11.0688 86.293 11.0076 86.5088 11.0076C86.8015 11.0076 87.0481 11.1069 87.2484 11.3056C87.4488 11.5042 87.5489 11.7486 87.5489 12.039C87.5489 12.1612 87.5258 12.2911 87.4796 12.4286ZM85.8238 11.0633C86.0328 10.9256 86.2623 10.8553 86.5088 10.8553C86.8407 10.8553 87.1268 10.9696 87.3571 11.1978C87.5873 11.4261 87.7026 11.7098 87.7026 12.039C87.7026 12.1803 87.6759 12.3265 87.6254 12.4768L87.625 12.4778L84.3428 22.0112C84.3428 22.0115 84.3427 22.0118 84.3426 22.012C84.2396 22.3177 84.0506 22.5718 83.7807 22.7725C83.5075 22.9757 83.1978 23.078 82.8563 23.078C82.5149 23.078 82.2051 22.9757 81.9319 22.7725C81.6614 22.5713 81.4663 22.3103 81.3483 21.9928C81.3476 21.9908 81.3468 21.9887 81.3462 21.9866L79.0422 14.8533L76.7381 21.9866C76.7375 21.9887 76.7368 21.9908 76.736 21.9928C76.618 22.3103 76.4229 22.5713 76.1523 22.7725C75.8791 22.9757 75.5694 23.078 75.2279 23.078C74.8865 23.078 74.5767 22.9757 74.3036 22.7725C74.0337 22.5718 73.8446 22.3177 73.7417 22.012C73.7416 22.0118 73.7415 22.0115 73.7414 22.0112L70.4589 12.4768C70.4084 12.3265 70.3817 12.1803 70.3817 12.039C70.3817 11.7098 70.497 11.4261 70.7272 11.1978C70.9574 10.9696 71.2435 10.8553 71.5756 10.8553C71.8201 10.8553 72.0425 10.9245 72.2376 11.0633C72.4478 11.1867 72.5952 11.3585 72.6691 11.5783L72.6704 11.5821L75.2291 19.9302L77.7626 11.7878L77.7628 11.7873C77.849 11.5136 78.0059 11.2884 78.2319 11.116L78.2363 11.1128C78.4777 10.9419 78.7477 10.8553 79.0422 10.8553C79.3357 10.8553 79.5994 10.9414 79.8271 11.1144C80.0681 11.2857 80.2344 11.511 80.3215 11.7873L80.3216 11.7878L82.8553 19.9302L85.4152 11.5783C85.4882 11.3611 85.6263 11.1883 85.8238 11.0633Z" fill="#969FA4"/>
<path d="M92.3183 22.9257C92.0249 22.9257 91.7781 22.8264 91.5778 22.6277C91.3775 22.429 91.2773 22.1845 91.2773 21.8943V7.75302C91.2773 7.46271 91.3775 7.21824 91.5778 7.0196C91.7781 6.80569 92.0249 6.69873 92.3183 6.69873C92.6108 6.69873 92.8577 6.80569 93.058 7.0196C93.2732 7.21824 93.3812 7.46271 93.3812 7.75302V21.8943C93.3812 22.1845 93.2732 22.429 93.058 22.6277C92.8577 22.8264 92.6108 22.9257 92.3183 22.9257Z" fill="#969FA4"/>
<path d="M98.2681 22.9257C97.9747 22.9257 97.7287 22.8264 97.5285 22.6277C97.3282 22.4291 97.228 22.1846 97.228 21.8943V12.0619C97.228 11.7716 97.3282 11.5271 97.5285 11.3285C97.7287 11.1146 97.9747 11.0076 98.2681 11.0076C98.5606 11.0076 98.8075 11.1146 99.0078 11.3285C99.223 11.5271 99.331 11.7716 99.331 12.0619V13.0016C99.917 12.3598 100.549 11.848 101.227 11.466C101.905 11.084 102.706 10.893 103.631 10.893C104.479 10.893 105.211 11.0917 105.827 11.4889C106.459 11.8862 106.937 12.4286 107.26 13.1162C107.599 13.8038 107.769 14.5601 107.769 15.3852V21.8943C107.769 22.1846 107.661 22.4291 107.445 22.6277C107.245 22.8264 106.998 22.9257 106.706 22.9257C106.412 22.9257 106.166 22.8264 105.966 22.6277C105.765 22.4291 105.665 22.1846 105.665 21.8943V15.6144C105.665 13.7503 104.818 12.8182 103.122 12.8182C102.352 12.8182 101.658 13.0169 101.041 13.4141C100.441 13.8114 99.8704 14.3462 99.331 15.0185V21.8943C99.331 22.1846 99.223 22.4291 99.0078 22.6277C98.8075 22.8264 98.5606 22.9257 98.2681 22.9257Z" fill="#969FA4"/>
<path fill-rule="evenodd" clip-rule="evenodd" d="M92.3175 23.078C91.9854 23.078 91.6999 22.9637 91.4698 22.7355C91.2396 22.5072 91.1237 22.2235 91.1237 21.8943V7.75306C91.1237 7.42482 91.2387 7.14184 91.4671 6.91394C91.6964 6.67053 91.9828 6.54645 92.3175 6.54645C92.6513 6.54645 92.9377 6.66984 93.1661 6.91187C93.4103 7.13851 93.535 7.422 93.535 7.75306V21.8943C93.535 22.2263 93.4094 22.5105 93.1643 22.7375C92.9341 22.9643 92.6487 23.078 92.3175 23.078ZM93.0571 22.6277C93.2732 22.4291 93.3813 22.1847 93.3813 21.8943V7.75306C93.3813 7.46275 93.2732 7.21827 93.0571 7.01964C92.8568 6.80573 92.6109 6.69877 92.3175 6.69877C92.025 6.69877 91.7781 6.80573 91.5778 7.01964C91.3775 7.21827 91.2774 7.46275 91.2774 7.75306V21.8943C91.2774 22.1847 91.3775 22.4291 91.5778 22.6277C91.7781 22.8264 92.025 22.9257 92.3175 22.9257C92.6109 22.9257 92.8568 22.8264 93.0571 22.6277ZM98.2681 23.078C97.9361 23.078 97.6497 22.9637 97.4195 22.7355C97.1894 22.5072 97.0734 22.2235 97.0734 21.8943V12.0619C97.0734 11.7337 97.1885 11.4507 97.4178 11.2227C97.6462 10.9794 97.9325 10.8553 98.2681 10.8553C98.6019 10.8553 98.8874 10.9787 99.1158 11.2207C99.36 11.4474 99.4848 11.7309 99.4848 12.0619V12.6183C100.004 12.0953 100.559 11.6666 101.15 11.3335C101.856 10.9363 102.684 10.7407 103.631 10.7407C104.503 10.7407 105.265 10.9453 105.91 11.3607C106.566 11.7736 107.063 12.3381 107.399 13.0506C107.748 13.7602 107.922 14.5393 107.922 15.3852V21.8943C107.922 22.2263 107.797 22.5105 107.552 22.7375C107.321 22.9643 107.036 23.078 106.705 23.078C106.373 23.078 106.087 22.9637 105.857 22.7355C105.627 22.5072 105.511 22.2235 105.511 21.8943V15.6144C105.511 14.7022 105.304 14.0464 104.915 13.6193C104.53 13.1951 103.942 12.9705 103.122 12.9705C102.38 12.9705 101.716 13.1613 101.127 13.5413C100.553 13.9201 100.006 14.4294 99.4848 15.0719V21.8943C99.4848 22.2263 99.3592 22.5105 99.1141 22.7375C98.8839 22.9643 98.5984 23.078 98.2681 23.078ZM99.0078 22.6277C99.223 22.4291 99.331 22.1847 99.331 21.8943V15.0185C99.8704 14.3462 100.441 13.8114 101.041 13.4141C101.658 13.0168 102.351 12.8183 103.122 12.8183C104.817 12.8183 105.665 13.7503 105.665 15.6144V21.8943C105.665 22.1847 105.765 22.4291 105.965 22.6277C106.165 22.8264 106.412 22.9257 106.705 22.9257C106.998 22.9257 107.244 22.8264 107.445 22.6277C107.661 22.4291 107.769 22.1847 107.769 21.8943V15.3852C107.769 14.5601 107.599 13.8038 107.26 13.1162C106.937 12.4286 106.459 11.8862 105.826 11.4889C105.211 11.0917 104.478 10.893 103.631 10.893C102.706 10.893 101.905 11.084 101.227 11.466C100.607 11.8148 100.027 12.2719 99.4848 12.8373C99.4329 12.8911 99.382 12.9459 99.331 13.0016V12.0619C99.331 11.7716 99.223 11.5271 99.0078 11.3285C98.8075 11.1146 98.5606 11.0076 98.2681 11.0076C97.9747 11.0076 97.7287 11.1146 97.5276 11.3285C97.3273 11.5271 97.2271 11.7716 97.2271 12.0619V21.8943C97.2271 22.1847 97.3273 22.4291 97.5276 22.6277C97.7287 22.8264 97.9747 22.9257 98.2681 22.9257C98.5606 22.9257 98.8075 22.8264 99.0078 22.6277Z" fill="#969FA4"/>
<path d="M114.913 22.9256C114.62 22.9256 114.374 22.8263 114.172 22.6277C113.972 22.429 113.872 22.1846 113.872 21.8942V8.76144H109.156C108.879 8.76144 108.648 8.66976 108.463 8.48641C108.278 8.30306 108.186 8.07386 108.186 7.79883C108.186 7.52379 108.278 7.2946 108.463 7.11124C108.648 6.91261 108.879 6.81329 109.156 6.81329H120.669C120.946 6.81329 121.177 6.91261 121.362 7.11124C121.562 7.2946 121.662 7.52379 121.662 7.79883C121.662 8.07386 121.562 8.30306 121.362 8.48641C121.177 8.66976 120.946 8.76144 120.669 8.76144H115.976V21.8942C115.976 22.1846 115.868 22.429 115.653 22.6277C115.452 22.8263 115.206 22.9256 114.913 22.9256Z" fill="#969FA4"/>
<path d="M127.579 23.0402C125.699 23.0402 124.226 22.513 123.163 21.4587C122.115 20.3891 121.591 18.8918 121.591 16.9665C121.591 15.8817 121.792 14.8809 122.193 13.9641C122.593 13.0473 123.209 12.3063 124.042 11.7409C124.874 11.1756 125.899 10.8929 127.116 10.8929C128.257 10.8929 129.243 11.1603 130.075 11.695C130.907 12.2146 131.539 12.9174 131.971 13.8037C132.402 14.6746 132.618 15.6296 132.618 16.6685C132.618 16.9589 132.518 17.2034 132.318 17.402C132.132 17.6006 131.879 17.6999 131.554 17.6999H123.718C123.842 18.7695 124.242 19.6022 124.92 20.1981C125.599 20.794 126.546 21.092 127.764 21.092C128.41 21.092 128.974 21.0309 129.451 20.9087C129.944 20.7864 130.422 20.6107 130.884 20.3816C131.007 20.3204 131.146 20.2898 131.301 20.2898C131.547 20.2898 131.763 20.3739 131.947 20.542C132.132 20.71 132.225 20.9239 132.225 21.1837C132.225 21.5198 132.024 21.8025 131.624 22.0317C131.023 22.3679 130.429 22.6199 129.844 22.788C129.258 22.9561 128.504 23.0402 127.579 23.0402ZM130.537 16.0039C130.491 15.2552 130.291 14.6287 129.936 14.1245C129.597 13.6203 129.174 13.2536 128.665 13.0244C128.157 12.7799 127.64 12.6577 127.116 12.6577C126.592 12.6577 126.076 12.7799 125.568 13.0244C125.059 13.2536 124.635 13.6203 124.296 14.1245C123.957 14.6287 123.764 15.2552 123.718 16.0039H130.537Z" fill="#969FA4"/>
<path d="M140.856 23.0402C139.747 23.0402 138.723 22.7957 137.783 22.3067C136.842 21.8178 136.087 21.1149 135.517 20.1981C134.962 19.2813 134.684 18.2041 134.684 16.9665C134.684 15.7288 134.962 14.6516 135.517 13.7349C136.087 12.8182 136.842 12.1153 137.783 11.6263C138.723 11.1374 139.747 10.8929 140.856 10.8929C141.673 10.8929 142.374 10.9998 142.96 11.2137C143.561 11.4124 144.116 11.6721 144.625 11.993C144.933 12.1917 145.087 12.4591 145.087 12.7952C145.087 13.0244 144.995 13.2383 144.809 13.437C144.64 13.6203 144.44 13.7119 144.209 13.7119C144.039 13.7119 143.869 13.6661 143.7 13.5744C143.191 13.3147 142.752 13.1314 142.382 13.0244C142.028 12.9021 141.581 12.8411 141.042 12.8411C139.716 12.8411 138.676 13.2231 137.921 13.987C137.166 14.7357 136.788 15.7288 136.788 16.9665C136.788 18.2041 137.166 19.205 137.921 19.969C138.676 20.7177 139.716 21.092 141.042 21.092C141.581 21.092 142.028 21.0385 142.382 20.9316C142.752 20.8094 143.191 20.6184 143.7 20.3586C143.869 20.2669 144.039 20.221 144.209 20.221C144.44 20.221 144.64 20.3204 144.809 20.519C144.995 20.7024 145.087 20.9087 145.087 21.1378C145.087 21.474 144.933 21.7414 144.625 21.9401C144.116 22.2609 143.561 22.5283 142.96 22.7422C142.374 22.9408 141.673 23.0402 140.856 23.0402Z" fill="#969FA4"/>
<path d="M148.767 22.9256C148.474 22.9256 148.227 22.8263 148.027 22.6277C147.827 22.429 147.727 22.1846 147.727 21.8942V7.01957C147.727 6.72926 147.827 6.48478 148.027 6.28614C148.227 6.07223 148.474 5.96527 148.767 5.96527C149.06 5.96527 149.306 6.07223 149.506 6.28614C149.723 6.48478 149.831 6.72926 149.831 7.01957V13.0015C150.417 12.3598 151.048 11.8479 151.726 11.4659C152.405 11.0839 153.206 10.8929 154.13 10.8929C154.977 10.8929 155.71 11.0916 156.326 11.4888C156.958 11.8861 157.435 12.4285 157.76 13.1162C158.099 13.8037 158.268 14.5601 158.268 15.3851V21.8942C158.268 22.1846 158.16 22.429 157.944 22.6277C157.744 22.8263 157.498 22.9256 157.204 22.9256C156.912 22.9256 156.665 22.8263 156.465 22.6277C156.264 22.429 156.164 22.1846 156.164 21.8942V15.6144C156.164 13.7502 155.317 12.8182 153.622 12.8182C152.851 12.8182 152.158 13.0168 151.541 13.414C150.94 13.8114 150.37 14.3461 149.831 15.0184V21.8942C149.831 22.1846 149.723 22.429 149.506 22.6277C149.306 22.8263 149.06 22.9256 148.767 22.9256Z" fill="#969FA4"/>
<path fill-rule="evenodd" clip-rule="evenodd" d="M123.053 21.5649C121.97 20.4593 121.437 18.9195 121.437 16.9666C121.437 15.8627 121.642 14.8411 122.051 13.9036C122.463 12.9605 123.098 12.1969 123.955 11.6154C124.818 11.0293 125.874 10.7406 127.117 10.7406C128.281 10.7406 129.297 11.014 130.158 11.5668C131.014 12.1015 131.665 12.8259 132.109 13.7371C132.551 14.6303 132.771 15.6083 132.771 16.6686C132.771 16.9968 132.657 17.2797 132.429 17.5076C132.209 17.7418 131.911 17.8524 131.554 17.8524H123.893C124.034 18.8096 124.413 19.5492 125.022 20.0842C125.664 20.6481 126.57 20.9398 127.763 20.9398C128.402 20.9398 128.951 20.8795 129.413 20.7612L129.414 20.761C129.896 20.6415 130.363 20.4697 130.816 20.2453C130.962 20.1724 131.125 20.1376 131.301 20.1376C131.586 20.1376 131.838 20.2365 132.051 20.4297C132.269 20.628 132.378 20.8835 132.378 21.1838C132.378 21.5935 132.129 21.9186 131.7 22.1637L131.699 22.1644C131.089 22.5057 130.485 22.7627 129.886 22.9345C129.282 23.108 128.511 23.1925 127.579 23.1925C125.668 23.1925 124.153 22.6561 123.055 21.5665L123.053 21.5649ZM123.738 17.8524C123.73 17.8021 123.724 17.7513 123.718 17.7H131.554C131.878 17.7 132.132 17.6007 132.317 17.4021C132.517 17.2034 132.617 16.959 132.617 16.6686C132.617 15.6296 132.402 14.6746 131.971 13.8038C131.539 12.9175 130.907 12.2147 130.075 11.6951C129.242 11.1604 128.257 10.893 127.117 10.893C125.899 10.893 124.874 11.1756 124.042 11.741C123.209 12.3063 122.593 13.0474 122.192 13.9642C121.791 14.881 121.591 15.8818 121.591 16.9666C121.591 18.8919 122.115 20.3892 123.163 21.4588C124.226 22.5131 125.699 23.0403 127.579 23.0403C128.503 23.0403 129.258 22.9562 129.844 22.7881C130.429 22.62 131.023 22.368 131.624 22.0318C132.024 21.8026 132.225 21.5199 132.225 21.1838C132.225 20.924 132.132 20.7101 131.947 20.542C131.763 20.374 131.547 20.2899 131.301 20.2899C131.146 20.2899 131.007 20.3205 130.884 20.3816C130.422 20.6108 129.944 20.7865 129.451 20.9088C128.973 21.031 128.41 21.0921 127.763 21.0921C126.546 21.0921 125.599 20.7941 124.92 20.1982C124.275 19.631 123.88 18.8489 123.738 17.8524ZM129.808 14.2091C129.484 13.7262 129.082 13.3795 128.601 13.1632L128.598 13.1616C128.108 12.9263 127.615 12.8101 127.117 12.8101C126.618 12.8101 126.124 12.9263 125.635 13.1615L125.631 13.1632C125.151 13.3795 124.748 13.7262 124.424 14.2091C124.127 14.6504 123.945 15.196 123.884 15.8517H130.371C130.309 15.1972 130.12 14.6526 129.81 14.2117L129.808 14.2091ZM130.526 15.8517C130.53 15.9018 130.535 15.9526 130.537 16.004H123.718C123.721 15.9526 123.725 15.9018 123.729 15.8517C123.792 15.17 123.98 14.5942 124.296 14.1246C124.635 13.6204 125.059 13.2536 125.567 13.0245C126.076 12.78 126.592 12.6577 127.117 12.6577C127.64 12.6577 128.157 12.78 128.665 13.0245C129.174 13.2536 129.597 13.6204 129.936 14.1246C130.267 14.5942 130.463 15.17 130.526 15.8517ZM135.386 20.2782L135.385 20.2766C134.814 19.3327 134.531 18.2274 134.531 16.9666C134.531 15.7058 134.814 14.6006 135.385 13.6566L135.386 13.655C135.97 12.7156 136.746 11.9934 137.711 11.4915C138.673 10.9906 139.723 10.7406 140.856 10.7406C141.685 10.7406 142.404 10.8489 143.011 11.0701C143.623 11.2724 144.188 11.5371 144.707 11.8646L144.708 11.8654C145.055 12.0893 145.241 12.4026 145.241 12.7953C145.241 13.0695 145.128 13.319 144.923 13.5404C144.727 13.7519 144.486 13.8644 144.209 13.8644C144.01 13.8644 143.817 13.8107 143.628 13.7092C143.125 13.4523 142.696 13.2739 142.339 13.1707L142.336 13.1696L142.332 13.1683C141.999 13.0536 141.571 12.9934 141.042 12.9934C139.748 12.9934 138.751 13.3654 138.03 14.0937L138.03 14.0948C137.308 14.8101 136.942 15.762 136.942 16.9666C136.942 18.1708 137.307 19.1309 138.03 19.8618C138.75 20.5751 139.747 20.9398 141.042 20.9398C141.571 20.9398 142.001 20.8872 142.336 20.7865C142.695 20.6677 143.125 20.4809 143.628 20.2241C143.817 20.1225 144.01 20.0688 144.209 20.0688C144.489 20.0688 144.729 20.1913 144.923 20.4159C145.129 20.6227 145.241 20.8649 145.241 21.1379C145.241 21.5306 145.055 21.8439 144.708 22.0678L144.707 22.0686C144.188 22.3959 143.624 22.6681 143.012 22.8857L143.009 22.8864C142.404 23.0919 141.685 23.1925 140.856 23.1925C139.723 23.1925 138.673 22.9426 137.711 22.4417C136.746 21.9397 135.97 21.2177 135.386 20.2782ZM144.809 20.5191C144.64 20.3205 144.44 20.2211 144.209 20.2211C144.039 20.2211 143.869 20.267 143.7 20.3587C143.191 20.6185 142.752 20.8094 142.382 20.9317C142.028 21.0386 141.581 21.0921 141.042 21.0921C139.716 21.0921 138.676 20.7178 137.921 19.9691C137.166 19.2051 136.788 18.2042 136.788 16.9666C136.788 15.7289 137.166 14.7358 137.921 13.9871C138.676 13.2231 139.716 12.8412 141.042 12.8412C141.581 12.8412 142.028 12.9022 142.382 13.0245C142.752 13.1315 143.191 13.3148 143.7 13.5745C143.869 13.6662 144.039 13.712 144.209 13.712C144.44 13.712 144.64 13.6204 144.809 13.437C144.995 13.2384 145.087 13.0245 145.087 12.7953C145.087 12.4592 144.932 12.1918 144.625 11.9931C144.116 11.6722 143.561 11.4125 142.96 11.2138C142.374 10.9999 141.673 10.893 140.856 10.893C139.747 10.893 138.722 11.1375 137.782 11.6264C136.842 12.1153 136.087 12.8182 135.516 13.7349C134.962 14.6517 134.684 15.7289 134.684 16.9666C134.684 18.2042 134.962 19.2814 135.516 20.1982C136.087 21.115 136.842 21.8179 137.782 22.3068C138.722 22.7958 139.747 23.0403 140.856 23.0403C141.673 23.0403 142.374 22.9409 142.96 22.7423C143.561 22.5284 144.116 22.261 144.625 21.9401C144.932 21.7415 145.087 21.4741 145.087 21.1379C145.087 20.9088 144.995 20.7024 144.809 20.5191ZM114.912 23.078C114.58 23.078 114.295 22.9636 114.064 22.7354C113.834 22.5072 113.718 22.2235 113.718 21.8943V8.91379H109.157C108.841 8.91379 108.57 8.80793 108.354 8.59415C108.138 8.38036 108.032 8.11157 108.032 7.79886C108.032 7.4872 108.138 7.21917 108.352 7.00573C108.566 6.77672 108.839 6.66101 109.157 6.66101H120.669C120.986 6.66101 121.256 6.77597 121.471 7.0035C121.7 7.21561 121.816 7.48421 121.816 7.79886C121.816 8.11453 121.699 8.38385 121.468 8.59629C121.253 8.80864 120.983 8.91379 120.669 8.91379H116.13V21.8943C116.13 22.2263 116.004 22.5105 115.759 22.7374C115.529 22.9643 115.243 23.078 114.912 23.078ZM115.652 22.6277C115.868 22.429 115.976 22.1846 115.976 21.8943V8.76147H120.669C120.946 8.76147 121.177 8.66979 121.362 8.48644C121.562 8.30309 121.662 8.07389 121.662 7.79886C121.662 7.52382 121.562 7.29463 121.362 7.11127C121.177 6.91264 120.946 6.81332 120.669 6.81332H109.157C108.879 6.81332 108.648 6.91264 108.463 7.11127C108.278 7.29463 108.186 7.52382 108.186 7.79886C108.186 8.07389 108.278 8.30309 108.463 8.48644C108.648 8.66979 108.879 8.76147 109.157 8.76147H113.872V21.8943C113.872 22.1846 113.972 22.429 114.172 22.6277C114.373 22.8264 114.62 22.9257 114.912 22.9257C115.206 22.9257 115.452 22.8264 115.652 22.6277ZM148.767 23.078C148.435 23.078 148.149 22.9636 147.919 22.7354C147.688 22.5072 147.573 22.2235 147.573 21.8943V7.0196C147.573 6.69134 147.688 6.40835 147.917 6.18044C148.146 5.93707 148.432 5.81299 148.767 5.81299C149.101 5.81299 149.387 5.93637 149.615 6.1784C149.86 6.40504 149.984 6.68854 149.984 7.0196V12.6183C150.504 12.0952 151.059 11.6666 151.65 11.3335C152.355 10.9363 153.184 10.7406 154.13 10.7406C155.002 10.7406 155.765 10.9453 156.409 11.3607C157.066 11.7736 157.562 12.338 157.897 13.0504C158.248 13.7601 158.422 14.5392 158.422 15.3852V21.8943C158.422 22.2263 158.296 22.5105 158.051 22.7374C157.821 22.9643 157.536 23.078 157.204 23.078C156.872 23.078 156.586 22.9636 156.356 22.7354C156.126 22.5072 156.011 22.2235 156.011 21.8943V15.6143C156.011 14.7022 155.803 14.0464 155.414 13.6192C155.028 13.1951 154.441 12.9705 153.621 12.9705C152.88 12.9705 152.216 13.1612 151.625 13.5413C151.053 13.9201 150.505 14.4294 149.984 15.0719V21.8943C149.984 22.2263 149.859 22.5104 149.614 22.7374C149.384 22.9643 149.098 23.078 148.767 23.078ZM149.507 22.6277C149.723 22.429 149.831 22.1846 149.831 21.8943V15.0185C150.37 14.3462 150.94 13.8113 151.541 13.4141C152.158 13.0168 152.851 12.8182 153.621 12.8182C155.317 12.8182 156.164 13.7503 156.164 15.6143V21.8943C156.164 22.1846 156.264 22.429 156.465 22.6277C156.665 22.8264 156.912 22.9257 157.204 22.9257C157.497 22.9257 157.744 22.8264 157.944 22.6277C158.16 22.429 158.268 22.1846 158.268 21.8943V15.3852C158.268 14.5601 158.099 13.8038 157.76 13.1161C157.435 12.4286 156.958 11.8861 156.326 11.4889C155.709 11.0916 154.978 10.893 154.13 10.893C153.206 10.893 152.404 11.084 151.726 11.466C151.107 11.8148 150.526 12.2719 149.984 12.8373C149.933 12.8911 149.882 12.9458 149.831 13.0016V7.0196C149.831 6.72928 149.723 6.48481 149.507 6.28618C149.306 6.07227 149.06 5.9653 148.767 5.9653C148.474 5.9653 148.227 6.07227 148.027 6.28618C147.827 6.48481 147.727 6.72928 147.727 7.0196V21.8943C147.727 22.1846 147.827 22.429 148.027 22.6277C148.227 22.8264 148.474 22.9257 148.767 22.9257C149.06 22.9257 149.306 22.8264 149.507 22.6277Z" fill="#969FA4"/>
</g>
<defs>
<clipPath id="clip0_2_728">
<rect width="159" height="27" fill="white" transform="translate(0.00872803 0.421875)"/>
</clipPath>
</defs>
</svg>
