<svg width="33" height="43" viewBox="0 0 33 43" fill="none" xmlns="http://www.w3.org/2000/svg">
<path fill-rule="evenodd" clip-rule="evenodd" d="M12.5098 1.16354C12.0598 1.33854 11.8348 1.58851 11.8848 1.8635C11.9598 2.28849 2.78501 14.6881 0.435112 22.2128C-0.289888 24.5628 0.885113 24.8878 6.23501 23.8628C9.48491 23.2378 9.35981 22.5879 7.20991 28.6377C5.61001 33.0875 4.43501 36.8124 3.88511 39.0873C3.13511 42.0872 4.71001 43.6621 8.60991 39.5873C10.2848 37.8373 14.0847 33.9125 22.9844 23.7628C30.5342 15.1631 30.5091 15.3881 24.5593 15.1631L20.8845 15.0131C22.6095 13.1882 29.0591 6.2384 31.0341 4.6134C33.009 2.96347 33.6341 2.28851 30.9842 1.91352C27.9093 1.46353 17.5096 1.28854 14.4597 1.01355C13.7597 0.93856 12.8848 1.01355 12.5098 1.16354ZM27.3342 3.68845L26.0342 4.7634C22.8593 7.3633 16.5846 14.8381 16.5846 15.988C16.5846 17.238 18.6846 17.113 24.1094 17.113C16.1096 26.3877 9.85981 33.6125 9.70981 33.6125C9.65981 33.6125 10.2349 31.9625 11.0098 29.9126C13.9097 22.1379 14.0597 20.6879 12.0098 20.9379C8.45991 21.3629 4.98501 21.8379 4.51001 21.9878C4.08511 22.1128 4.36001 21.4379 5.95991 18.438C8.80991 12.9882 9.95981 11.4132 14.9597 3.08847C24.4843 3.51345 24.3843 3.51346 27.3342 3.68845Z" fill="#006B99"/>
</svg>
